<svg width="116" height="33" viewBox="0 0 116 33" fill="none" xmlns="http://www.w3.org/2000/svg">
<path d="M40.208 15.268L38.696 22.09H35.924L33.044 11.686C32.552 11.506 32.222 11.302 32.054 11.074L32.234 9.58H36.392L36.572 11.074C36.368 11.314 36.044 11.512 35.6 11.668L36.878 16.978C37.07 17.746 37.22 18.508 37.328 19.264L37.364 19.57H37.616C37.628 18.862 37.742 18.01 37.958 17.014L39.578 9.706H42.332L43.952 16.978C44.144 17.854 44.276 18.616 44.348 19.264L44.384 19.588H44.636C44.66 18.856 44.804 17.998 45.068 17.014L46.49 11.74C45.986 11.56 45.638 11.338 45.446 11.074L45.626 9.58H49.604L49.784 11.074C49.556 11.362 49.154 11.596 48.578 11.776L45.554 22.09H42.728L41.27 15.286C41.102 14.47 40.976 13.672 40.892 12.892L40.856 12.532H40.604C40.556 13.36 40.424 14.272 40.208 15.268ZM54.4013 22.144C52.9613 22.144 51.8753 21.76 51.1433 20.992C50.4233 20.224 50.0633 19.108 50.0633 17.644C50.0633 16.756 50.1893 15.994 50.4413 15.358C50.6933 14.71 51.0353 14.212 51.4673 13.864C52.3073 13.192 53.2853 12.856 54.4013 12.856C55.5173 12.856 56.3693 13.144 56.9573 13.72C57.5573 14.284 57.8573 15.304 57.8573 16.78C57.8573 17.644 57.4313 18.076 56.5793 18.076H52.6733C52.7213 18.832 52.9133 19.366 53.2493 19.678C53.5973 19.99 54.1433 20.146 54.8873 20.146C55.2953 20.146 55.6853 20.098 56.0573 20.002C56.4293 19.906 56.6993 19.81 56.8673 19.714L57.1193 19.57L57.6593 21.01C57.5873 21.094 57.4793 21.202 57.3353 21.334C57.2033 21.454 56.8553 21.622 56.2913 21.838C55.7393 22.042 55.1093 22.144 54.4013 22.144ZM55.5353 16.474C55.5593 16.306 55.5713 16.102 55.5713 15.862C55.5713 15.622 55.4753 15.37 55.2833 15.106C55.0913 14.83 54.7553 14.692 54.2753 14.692C53.8073 14.692 53.4473 14.836 53.1953 15.124C52.9433 15.412 52.7753 15.898 52.6913 16.582L55.5353 16.474ZM58.4045 9.22C59.0765 9.064 59.7005 8.986 60.2765 8.986C60.8525 8.986 61.3385 9.004 61.7345 9.04V13.54C61.9865 13.36 62.3225 13.204 62.7425 13.072C63.1625 12.928 63.5645 12.856 63.9485 12.856C65.2565 12.856 66.1745 13.192 66.7025 13.864C67.2305 14.536 67.4945 15.682 67.4945 17.302C67.4945 18.202 67.3685 18.982 67.1165 19.642C66.8765 20.29 66.5465 20.788 66.1265 21.136C65.3345 21.808 64.3985 22.144 63.3185 22.144C62.5025 22.144 61.6985 21.94 60.9065 21.532C60.6785 21.844 60.4145 22 60.1145 22H59.2145V11.218C58.7945 11.074 58.4645 10.87 58.2245 10.606L58.4045 9.22ZM63.1745 20.308C64.3265 20.308 64.9025 19.342 64.9025 17.41C64.9025 16.39 64.8005 15.7 64.5965 15.34C64.4045 14.968 64.0625 14.782 63.5705 14.782C62.8265 14.782 62.2145 14.98 61.7345 15.376V20.002C62.2505 20.206 62.7305 20.308 63.1745 20.308ZM73.7964 11.47C72.9804 11.47 72.3444 11.782 71.8884 12.406C71.4444 13.03 71.2224 14.116 71.2224 15.664C71.2224 18.628 72.0384 20.11 73.6704 20.11C74.3184 20.11 74.8944 20.008 75.3984 19.804V17.77C74.8464 17.59 74.4684 17.368 74.2644 17.104L74.4444 15.682H78.6564L78.8364 17.104C78.6804 17.296 78.3984 17.482 77.9904 17.662V20.992C77.4144 21.412 76.7784 21.712 76.0824 21.892C75.3984 22.06 74.5404 22.144 73.5084 22.144C71.7924 22.144 70.5324 21.658 69.7284 20.686C68.9244 19.702 68.5224 18.112 68.5224 15.916C68.5224 13.708 68.9964 12.076 69.9444 11.02C70.9044 9.964 72.2124 9.436 73.8684 9.436C75.5364 9.436 76.8984 9.814 77.9544 10.57C77.9544 10.642 77.9544 10.78 77.9544 10.984C77.9544 11.188 77.9124 11.536 77.8284 12.028C77.7444 12.52 77.6244 12.922 77.4684 13.234H75.8124C75.6324 12.898 75.5124 12.4 75.4524 11.74C74.9364 11.56 74.3844 11.47 73.7964 11.47ZM79.5765 9.22C80.2485 9.064 80.8725 8.986 81.4485 8.986C82.0245 8.986 82.5105 9.004 82.9065 9.04V20.002C83.3745 20.182 83.7045 20.386 83.8965 20.614L83.7165 22H79.5765L79.3965 20.614C79.5645 20.386 79.8945 20.182 80.3865 20.002V11.218C79.9665 11.074 79.6365 10.87 79.3965 10.606L79.5765 9.22ZM88.7979 22.144C87.3819 22.144 86.3319 21.766 85.6479 21.01C84.9639 20.254 84.6219 19.114 84.6219 17.59C84.6219 16.054 84.9999 14.884 85.7559 14.08C86.5239 13.264 87.6219 12.856 89.0499 12.856C90.4779 12.856 91.5339 13.216 92.2179 13.936C92.9139 14.656 93.2619 15.784 93.2619 17.32C93.2619 18.844 92.8719 20.032 92.0919 20.884C91.3239 21.724 90.2259 22.144 88.7979 22.144ZM87.2139 17.428C87.2139 19.348 87.7899 20.308 88.9419 20.308C89.5299 20.308 89.9619 20.092 90.2379 19.66C90.5259 19.216 90.6699 18.496 90.6699 17.5C90.6699 15.628 90.0819 14.692 88.9059 14.692C88.3299 14.692 87.9039 14.902 87.6279 15.322C87.3519 15.73 87.2139 16.432 87.2139 17.428ZM102.417 22.108L101.499 19.264C101.307 18.688 101.157 17.968 101.049 17.104L100.995 16.672H100.743C100.623 17.608 100.443 18.466 100.203 19.246L99.3571 22.108H96.8011L94.5331 15.034C94.0171 14.854 93.6631 14.638 93.4711 14.386L93.6511 13H97.8631L98.0431 14.386C97.8271 14.638 97.4611 14.854 96.9451 15.034L97.9891 19.624H98.2411C98.3731 18.988 98.5291 18.334 98.7091 17.662L99.9331 13.036H101.949L103.155 17.626L103.605 19.624H103.857C104.301 17.596 104.601 16.234 104.757 15.538L104.865 15.034C104.325 14.842 103.965 14.626 103.785 14.386L103.965 13H107.961L108.141 14.386C107.937 14.662 107.559 14.89 107.007 15.07L104.757 22.108H102.417Z" fill="#3592C4"/>
<path fill-rule="evenodd" clip-rule="evenodd" d="M16.05 2.80878C10.9576 2.80878 6.82126 6.9451 6.82126 12.0375C6.82126 14.9607 8.10338 16.793 9.32907 18.1723C9.94349 18.8619 10.5407 19.4497 10.9654 20.0108C11.3902 20.5704 11.6363 21.0798 11.6363 21.6675V25.68C11.6363 26.7835 12.5391 27.6863 13.6425 27.6863H14.0845C14.2726 28.5985 15.0845 29.2913 16.05 29.2913C17.0155 29.2913 17.8274 28.5985 18.0155 27.6863H18.4575C19.5609 27.6863 20.4638 26.7835 20.4638 25.68V21.6675C20.4638 21.0798 20.7098 20.5704 21.1346 20.0108C21.5594 19.4497 22.1565 18.8619 22.7709 18.1723C23.9966 16.793 25.2788 14.9607 25.2788 12.0375C25.2788 6.9451 21.1424 2.80878 16.05 2.80878ZM16.05 3.61128C20.7083 3.61128 24.4763 7.37927 24.4763 12.0375C24.4763 14.7319 23.3509 16.3102 22.1691 17.6394C21.5797 18.3039 20.9732 18.8948 20.4951 19.5249C20.0171 20.1566 19.6613 20.8509 19.6613 21.6675V22.0688H17.655V13.9623C18.34 13.7789 18.8588 13.1786 18.8588 12.4388C18.8588 11.5563 18.1362 10.8338 17.2538 10.8338C16.7679 10.8338 16.3447 11.0657 16.05 11.4106C15.7553 11.0657 15.3321 10.8338 14.8463 10.8338C13.9638 10.8338 13.2413 11.5563 13.2413 12.4388C13.2413 13.1786 13.7601 13.7789 14.445 13.9623V22.0688H12.4388V21.6675C12.4388 20.8509 12.083 20.1566 11.6049 19.5249C11.1269 18.8948 10.5203 18.3039 9.93095 17.6394C8.74914 16.3102 7.62376 14.7319 7.62376 12.0375C7.62376 7.37927 11.3917 3.61128 16.05 3.61128ZM16.05 4.81503C15.829 4.81503 15.6488 4.99528 15.6488 5.21628C15.6488 5.43728 15.829 5.61753 16.05 5.61753C16.271 5.61753 16.4513 5.43728 16.4513 5.21628C16.4513 4.99528 16.271 4.81503 16.05 4.81503ZM14.3008 5.047C14.2601 5.047 14.2193 5.05013 14.1817 5.06111C13.967 5.1191 13.84 5.33853 13.898 5.55326C13.9544 5.76643 14.1739 5.89339 14.3886 5.83696C14.6033 5.77897 14.7303 5.55953 14.6723 5.3448C14.6268 5.17553 14.4764 5.05484 14.3008 5.047ZM17.8117 5.047C17.6315 5.04857 17.4748 5.17082 17.4277 5.3448C17.3697 5.55953 17.4967 5.77897 17.7114 5.83696C17.9262 5.89339 18.1456 5.76643 18.202 5.55326C18.26 5.33853 18.1331 5.1191 17.9183 5.06111C17.8838 5.0517 17.8478 5.047 17.8117 5.047ZM12.63 5.72881C12.5626 5.73038 12.4968 5.74919 12.4388 5.7821C12.2475 5.89339 12.1801 6.13947 12.2914 6.33069C12.3447 6.42316 12.4325 6.49056 12.5359 6.51877C12.6378 6.54542 12.7475 6.53131 12.84 6.47802C12.9325 6.42473 12.9999 6.33696 13.0265 6.23351C13.0547 6.13163 13.0406 6.02191 12.9858 5.92944C12.9137 5.80248 12.7773 5.72568 12.63 5.72881ZM19.4418 5.73038C19.3039 5.73665 19.1801 5.81188 19.1127 5.931C19.0014 6.12222 19.0688 6.36674 19.26 6.47802C19.4512 6.5893 19.6973 6.52347 19.807 6.33225C19.8619 6.23978 19.876 6.13006 19.8478 6.02661C19.8211 5.92317 19.7537 5.83539 19.6613 5.7821C19.5939 5.74448 19.5186 5.72568 19.4418 5.73038ZM20.8791 6.81344C20.771 6.81031 20.666 6.85262 20.5891 6.92943C20.4324 7.08616 20.4324 7.34165 20.5891 7.49839C20.7459 7.65356 20.9998 7.65356 21.1565 7.49839C21.3133 7.34165 21.3133 7.08616 21.1565 6.92943C21.0829 6.85576 20.9841 6.81501 20.8791 6.81344ZM11.2334 6.81344C11.1237 6.81187 11.0187 6.85419 10.9419 6.93099C10.7867 7.08773 10.7867 7.34165 10.9419 7.49839C11.0986 7.65512 11.3541 7.65512 11.5109 7.49839C11.666 7.34165 11.666 7.08773 11.5109 6.93099C11.4356 6.85733 11.3369 6.81501 11.2334 6.81344ZM21.9481 8.22565C21.8807 8.22722 21.8148 8.24603 21.7553 8.27894C21.6644 8.33223 21.597 8.42001 21.5688 8.52345C21.5421 8.62533 21.5562 8.73505 21.6095 8.82753C21.7208 9.01875 21.9653 9.08458 22.1565 8.97329C22.3493 8.86358 22.4152 8.6175 22.3039 8.42628C22.2302 8.29932 22.0938 8.22252 21.9481 8.22565ZM10.1237 8.22565C9.98737 8.23349 9.86355 8.30872 9.79458 8.42628C9.68487 8.6175 9.7507 8.86358 9.94192 8.97329C10.0344 9.02815 10.1441 9.04226 10.246 9.01405C10.3494 8.9874 10.4372 8.92 10.4905 8.82753C10.6018 8.63631 10.5344 8.39023 10.3432 8.28051C10.2773 8.24133 10.2005 8.22252 10.1237 8.22565ZM9.4576 9.8714C9.27735 9.87297 9.12061 9.99366 9.07359 10.1692C9.01559 10.3824 9.14255 10.6018 9.35728 10.6598C9.57202 10.7178 9.79145 10.5908 9.84944 10.3761C9.90587 10.1614 9.77891 9.94194 9.56575 9.88551C9.5297 9.87611 9.49365 9.8714 9.4576 9.8714ZM22.6534 9.8714C22.6142 9.86984 22.5735 9.87454 22.5343 9.88551C22.3211 9.94194 22.1941 10.1614 22.2506 10.3761C22.3086 10.5908 22.528 10.7178 22.7427 10.6598C22.9575 10.6018 23.0844 10.3824 23.0264 10.1692C22.981 9.99836 22.8305 9.87767 22.6534 9.8714ZM9.22876 11.6363C9.00776 11.6363 8.82751 11.8165 8.82751 12.0375C8.82751 12.2585 9.00776 12.4388 9.22876 12.4388C9.44976 12.4388 9.63001 12.2585 9.63001 12.0375C9.63001 11.8165 9.44976 11.6363 9.22876 11.6363ZM14.8463 11.6363C15.2945 11.6363 15.6488 11.9905 15.6488 12.4388H16.4513C16.4513 11.9905 16.8055 11.6363 17.2538 11.6363C17.702 11.6363 18.0563 11.9905 18.0563 12.4388C18.0563 12.887 17.702 13.2413 17.2538 13.2413H16.8525V22.0688H15.2475V13.2413H14.8463C14.398 13.2413 14.0438 12.887 14.0438 12.4388C14.0438 11.9905 14.398 11.6363 14.8463 11.6363ZM22.8713 11.6363C22.6503 11.6363 22.47 11.8165 22.47 12.0375C22.47 12.2585 22.6503 12.4388 22.8713 12.4388C23.0923 12.4388 23.2725 12.2585 23.2725 12.0375C23.2725 11.8165 23.0923 11.6363 22.8713 11.6363ZM9.47641 13.4027C9.43565 13.4012 9.39647 13.4059 9.35728 13.4168C9.14255 13.4732 9.01559 13.6927 9.07359 13.9074C9.13158 14.1221 9.35101 14.2491 9.56575 14.1911C9.77891 14.1331 9.90587 13.9137 9.84944 13.699C9.80399 13.5297 9.65195 13.409 9.47641 13.4027ZM22.6346 13.4027C22.4559 13.4043 22.2976 13.525 22.2506 13.699C22.1941 13.9137 22.3211 14.1331 22.5343 14.1911C22.749 14.2491 22.9684 14.1221 23.0264 13.9074C23.0844 13.6927 22.9575 13.4732 22.7427 13.4168C22.7083 13.4074 22.6722 13.4027 22.6346 13.4027ZM10.1331 15.0469C10.0657 15.0485 9.99991 15.0657 9.94192 15.1002C9.7507 15.2115 9.68487 15.456 9.79458 15.6488C9.90587 15.84 10.1519 15.9058 10.3432 15.7945C10.4356 15.7428 10.503 15.655 10.5313 15.5516C10.5579 15.4482 10.5438 15.3384 10.4905 15.2475C10.4168 15.119 10.2805 15.0422 10.1331 15.0469ZM21.9371 15.0485C21.8023 15.0547 21.6785 15.13 21.6095 15.2475C21.4982 15.4403 21.5641 15.6848 21.7553 15.7961C21.9481 15.9074 22.1926 15.8416 22.3039 15.6488C22.4152 15.4576 22.3493 15.213 22.1565 15.1018C22.0907 15.0626 22.0139 15.0453 21.9371 15.0485ZM11.2334 16.4591C11.1237 16.4575 11.0187 16.4999 10.9419 16.5767C10.7867 16.7334 10.7867 16.9889 10.9419 17.1456C11.0986 17.3008 11.3541 17.3008 11.5109 17.1456C11.666 16.9889 11.666 16.7334 11.5109 16.5767C11.4356 16.503 11.3369 16.4622 11.2334 16.4591ZM20.8791 16.4591C20.771 16.4575 20.666 16.4999 20.5891 16.5767C20.4324 16.7334 20.4324 16.9889 20.5891 17.1456C20.7459 17.3008 20.9998 17.3008 21.1565 17.1456C21.2318 17.0688 21.2741 16.9669 21.2741 16.8604C21.2741 16.7538 21.2318 16.6519 21.1565 16.5767C21.0829 16.503 20.9826 16.4607 20.8791 16.4591ZM12.4388 22.8713H19.6613V23.6738H14.8463V24.4763H19.6613V25.2788H14.8463V26.0813H19.5876C19.4246 26.5499 18.9857 26.8838 18.4575 26.8838H13.6425C13.1143 26.8838 12.6754 26.5499 12.5124 26.0813H14.0438V25.2788H12.4388V24.4763H14.0438V23.6738H12.4388V22.8713ZM14.9199 27.6863H17.1801C17.0171 28.1549 16.5782 28.4888 16.05 28.4888C15.5218 28.4888 15.0829 28.1549 14.9199 27.6863Z" fill="#FFC66D"/>
</svg>
